<?xml version="1.0" encoding="iso-8859-1"?>
<!-- Generator: Adobe Illustrator 19.0.0, SVG Export Plug-In . SVG Version: 6.00 Build 0)  -->
<svg version="1.1" id="Capa_1" xmlns="http://www.w3.org/2000/svg" xmlns:xlink="http://www.w3.org/1999/xlink" x="0px" y="0px"
	 viewBox="0 0 473.73 473.73" style="enable-background:new 0 0 473.73 473.73;" xml:space="preserve">
<g>
	<path d="M242.03,251.186c-2.895-2.748-7.436-2.748-10.33,0l-65.998,62.675c-3.003,2.853-3.126,7.6-0.273,10.604
		s7.6,3.126,10.604,0.273l60.833-57.771l60.833,57.771c1.451,1.378,3.31,2.062,5.164,2.062c1.984,0,3.965-0.783,5.439-2.335
		c2.853-3.004,2.729-7.751-0.273-10.604L242.03,251.186z"/>
	<path d="M466.23,223.94h-2.5V9.365c0-4.143-3.357-7.5-7.5-7.5s-7.5,3.357-7.5,7.5V48.81h-26.122V30.357c0-4.143-3.357-7.5-7.5-7.5
		s-7.5,3.357-7.5,7.5V48.81h-26.123V30.357c0-4.143-3.357-7.5-7.5-7.5s-7.5,3.357-7.5,7.5V48.81h-26.122V9.365
		c0-4.143-3.357-7.5-7.5-7.5s-7.5,3.357-7.5,7.5v204.609l-80.998-76.918V89.669h12.018c4.143,0,7.5-3.357,7.5-7.5
		s-3.357-7.5-7.5-7.5h-12.018V56.31c0-4.143-3.357-7.5-7.5-7.5s-7.5,3.357-7.5,7.5v18.359h-12.018c-4.143,0-7.5,3.357-7.5,7.5
		s3.357,7.5,7.5,7.5h12.018v47.387l-80.998,76.918V9.365c0-4.143-3.357-7.5-7.5-7.5s-7.5,3.357-7.5,7.5V48.81h-26.122V30.357
		c0-4.143-3.357-7.5-7.5-7.5s-7.5,3.357-7.5,7.5V48.81H66.122V30.357c0-4.143-3.357-7.5-7.5-7.5s-7.5,3.357-7.5,7.5V48.81H25V9.365
		c0-4.143-3.357-7.5-7.5-7.5S10,5.223,10,9.365V223.94H7.5c-4.143,0-7.5,3.357-7.5,7.5s3.357,7.5,7.5,7.5H10v225.425
		c0,4.143,3.357,7.5,7.5,7.5h438.73c4.143,0,7.5-3.357,7.5-7.5V238.94h2.5c4.143,0,7.5-3.357,7.5-7.5S470.373,223.94,466.23,223.94z
		 M376.748,393.626c0-9.814,7.984-17.799,17.799-17.799s17.799,7.984,17.799,17.799v63.239h-35.598V393.626z M394.547,360.827
		c-18.085,0-32.799,14.714-32.799,32.799v63.239h-21.385v-52.5c0-4.142-3.356-7.499-7.498-7.5c-4.145,0-7.502,3.357-7.502,7.5v52.5
		H280.17v-92.612c0-23.878-19.427-43.305-43.305-43.305s-43.305,19.427-43.305,43.305v92.612h-45.193V321.44
		c0-4.143-3.357-7.5-7.5-7.5c-4.144,0.001-7.5,3.358-7.5,7.5v135.425h-21.385v-63.239c0-18.085-14.714-32.799-32.799-32.799
		s-32.799,14.714-32.799,32.799v63.239H25V238.94h108.367v52.5c0,4.142,3.356,7.499,7.498,7.5c4.145,0,7.502-3.357,7.502-7.5
		v-56.779l88.498-84.042l88.498,84.042v139.704c0,4.143,3.357,7.5,7.5,7.5c4.144-0.001,7.5-3.358,7.5-7.5V238.94H448.73v217.925
		h-21.385v-63.239C427.346,375.541,412.632,360.827,394.547,360.827z M208.561,364.253c0-15.607,12.697-28.305,28.305-28.305
		s28.305,12.697,28.305,28.305v92.612h-56.609V364.253z M61.385,393.626c0-9.814,7.984-17.799,17.799-17.799
		s17.799,7.984,17.799,17.799v63.239H61.385V393.626z M25,63.81h108.367V223.94H25V63.81z M340.363,63.81H448.73V223.94H340.363
		V63.81z"/>
	<path d="M373.985,91.045c-4.143,0-7.5,3.357-7.5,7.5v90.66c0,4.143,3.357,7.5,7.5,7.5s7.5-3.357,7.5-7.5v-90.66
		C381.485,94.402,378.128,91.045,373.985,91.045z"/>
	<path d="M415.108,91.045c-4.143,0-7.5,3.357-7.5,7.5v90.66c0,4.143,3.357,7.5,7.5,7.5s7.5-3.357,7.5-7.5v-90.66
		C422.608,94.402,419.251,91.045,415.108,91.045z"/>
	<path d="M99.745,91.045c-4.143,0-7.5,3.357-7.5,7.5v90.66c0,4.143,3.357,7.5,7.5,7.5s7.5-3.357,7.5-7.5v-90.66
		C107.245,94.402,103.888,91.045,99.745,91.045z"/>
	<path d="M58.622,91.045c-4.143,0-7.5,3.357-7.5,7.5v90.66c0,4.143,3.357,7.5,7.5,7.5s7.5-3.357,7.5-7.5v-90.66
		C66.122,94.402,62.765,91.045,58.622,91.045z"/>
</g>
<g>
</g>
<g>
</g>
<g>
</g>
<g>
</g>
<g>
</g>
<g>
</g>
<g>
</g>
<g>
</g>
<g>
</g>
<g>
</g>
<g>
</g>
<g>
</g>
<g>
</g>
<g>
</g>
<g>
</g>
</svg>
